<?xml version="1.0" encoding="UTF-8"?>
<svg width="800px" height="800px" viewBox="0 0 800 800" version="1.1" xmlns="http://www.w3.org/2000/svg">
    <g stroke="none" stroke-width="1" fill="none" fill-rule="evenodd" opacity="0.1">
        <g transform="translate(70.000000, 30.000000)" fill="#FF8A00" fill-rule="nonzero">
            <path d="M330,0 C330,0 305,40 310,90 C315,140 345,160 345,200 C345,240 315,270 330,330 C345,390 375,400 360,440 C345,480 285,470 270,520 C255,570 300,610 270,650 C240,690 180,640 150,670 C120,700 150,740 120,740 C90,740 60,710 60,710 C60,710 90,670 60,640 C30,610 0,640 0,610 C0,580 20,540 60,530 C100,520 120,470 105,440 C90,410 30,410 30,360 C30,310 75,290 75,240 C75,190 30,170 45,130 C60,90 105,100 120,60 C135,20 105,0 105,0 L330,0 Z"></path>
        </g>
        <g transform="translate(500.000000, 300.000000)" fill="#E53935" fill-rule="nonzero">
            <path d="M230,0 C230,0 205,40 210,90 C215,140 245,160 245,200 C245,240 215,270 230,330 C245,390 275,400 260,440 C245,480 185,470 170,520 C155,570 200,610 170,650 C140,690 80,640 50,670 C20,700 50,740 20,740 C-10,740 -40,710 -40,710 C-40,710 -10,670 -40,640 C-70,610 -100,640 -100,610 C-100,580 -80,540 -40,530 C0,520 20,470 5,440 C-10,410 -70,410 -70,360 C-70,310 -25,290 -25,240 C-25,190 -70,170 -55,130 C-40,90 5,100 20,60 C35,20 5,0 5,0 L230,0 Z"></path>
        </g>
        <g transform="translate(120.000000, 500.000000)" fill="#2196F3" fill-rule="nonzero" opacity="0.5">
            <path d="M160,0 C160,0 145,25 148,50 C152,75 168,85 168,108 C168,131 152,148 160,178 C168,208 185,215 177,235 C168,255 133,250 126,275 C118,300 145,325 126,345 C107,365 75,338 60,355 C45,372 60,393 45,393 C30,393 15,375 15,375 C15,375 30,360 15,345 C0,330 -15,345 -15,330 C-15,315 -5,295 15,290 C35,285 45,260 38,245 C30,230 0,230 0,202 C0,175 22,165 22,140 C22,115 0,105 7,84 C15,63 38,69 45,50 C53,31 38,20 38,20 L160,20 L160,0 Z"></path>
        </g>
    </g>
    <g transform="translate(100.000000, 100.000000)" fill="#333333" fill-rule="nonzero" opacity="0.05">
        <path d="M100,0 C100,5.52 95.52,10 90,10 C84.48,10 80,5.52 80,0 C80,5.52 75.52,10 70,10 C64.48,10 60,5.52 60,0 C60,5.52 55.52,10 50,10 C44.48,10 40,5.52 40,0 C40,5.52 35.52,10 30,10 C24.48,10 20,5.52 20,0 C20,5.52 15.52,10 10,10 C4.48,10 0,5.52 0,0 L0,100 C0,94.48 4.48,90 10,90 C15.52,90 20,94.48 20,100 C20,94.48 24.48,90 30,90 C35.52,90 40,94.48 40,100 C40,94.48 44.48,90 50,90 C55.52,90 60,94.48 60,100 C60,94.48 64.48,90 70,90 C75.52,90 80,94.48 80,100 C80,94.48 84.48,90 90,90 C95.52,90 100,94.48 100,100 Z"></path>
    </g>
    <g transform="translate(300.000000, 400.000000)" fill="#333333" fill-rule="nonzero" opacity="0.05">
        <path d="M100,0 C100,5.52 95.52,10 90,10 C84.48,10 80,5.52 80,0 C80,5.52 75.52,10 70,10 C64.48,10 60,5.52 60,0 C60,5.52 55.52,10 50,10 C44.48,10 40,5.52 40,0 C40,5.52 35.52,10 30,10 C24.48,10 20,5.52 20,0 C20,5.52 15.52,10 10,10 C4.48,10 0,5.52 0,0 L0,100 C0,94.48 4.48,90 10,90 C15.52,90 20,94.48 20,100 C20,94.48 24.48,90 30,90 C35.52,90 40,94.48 40,100 C40,94.48 44.48,90 50,90 C55.52,90 60,94.48 60,100 C60,94.48 64.48,90 70,90 C75.52,90 80,94.48 80,100 C80,94.48 84.48,90 90,90 C95.52,90 100,94.48 100,100 Z"></path>
    </g>
    <g transform="translate(500.000000, 200.000000)" fill="#333333" fill-rule="nonzero" opacity="0.05">
        <path d="M100,0 C100,5.52 95.52,10 90,10 C84.48,10 80,5.52 80,0 C80,5.52 75.52,10 70,10 C64.48,10 60,5.52 60,0 C60,5.52 55.52,10 50,10 C44.48,10 40,5.52 40,0 C40,5.52 35.52,10 30,10 C24.48,10 20,5.52 20,0 C20,5.52 15.52,10 10,10 C4.48,10 0,5.52 0,0 L0,100 C0,94.48 4.48,90 10,90 C15.52,90 20,94.48 20,100 C20,94.48 24.48,90 30,90 C35.52,90 40,94.48 40,100 C40,94.48 44.48,90 50,90 C55.52,90 60,94.48 60,100 C60,94.48 64.48,90 70,90 C75.52,90 80,94.48 80,100 C80,94.48 84.48,90 90,90 C95.52,90 100,94.48 100,100 Z"></path>
    </g>
</svg>